<svg xmlns="http://www.w3.org/2000/svg" version="1.1" xmlns:xlink="http://www.w3.org/1999/xlink" viewBox="0 0 21.07896104464769 20.08732149112462"><g transform="matrix(0.8541310422179574,0,0,0.8541310422179574,3.0024413646271038,16.198184170864554)"><g transform="matrix(1,0,0,1,0,0)" clip-path="url(#SvgjsClipPath41250)"><g clip-path="url(#SvgjsClipPath412486d391247-6706-4f03-9abe-981c94c58c4a)"><path d=" M 6.103132662413433 -14.410621564012438 L 2.3222543468197188 -10.62943756851448 L 2.3222543468197188 -5.282484683512742 L 6.103132662413433 -1.5016063679190275 L 11.45008554741517 -1.5016063679190275 L 15.230963863008885 -5.282484683512742 L 15.230963863008885 -10.62943756851448 L 11.45008554741517 -14.410621564012438 Z M 11.57105836951896 -14.702698712515705 L 5.982159840309647 -14.702698712515705 L 2.030482878220693 -10.750104710714023 L 2.030482878220693 -5.161511861408954 L 5.982159840309647 -1.20952921941576 L 11.57105836951896 -1.20952921941576 L 15.523041011512156 -5.161511861408954 L 15.523041011512156 -10.750104710714023 Z" fill="#525252" transform="matrix(1,0,0,1,0,0)" fill-rule="evenodd"></path></g><g clip-path="url(#SvgjsClipPath412486d391247-6706-4f03-9abe-981c94c58c4a)"><path d=" M 6.382524094890657 -13.671716815483368 L 2.9971191554100804 -10.286311876002792 L 2.9971191554100804 -5.498218275931558 L 6.382524094890657 -2.11281333645098 L 11.170312015057647 -2.11281333645098 L 14.555716954538223 -5.498218275931558 L 14.555716954538223 -10.28600619609855 L 11.170312015057647 -13.671411135579126 Z M 11.291590517065675 -13.963793963986637 L 6.261551272786869 -13.963793963986637 L 2.70481274697863 -10.406979018202335 L 2.70481274697863 -5.376939773923531 L 6.261551272786871 -1.8201248281392282 L 11.291590517065675 -1.8201248281392282 L 14.848405462849977 -5.376939773923531 L 14.848405462849977 -10.406979018202335 Z" fill="#525252" transform="matrix(1,0,0,1,0,0)" fill-rule="evenodd"></path></g><g clip-path="url(#SvgjsClipPath412486d391247-6706-4f03-9abe-981c94c58c4a)"><path d=" M 13.888264883625732 -13.003653384762394 L 3.6650297461789334 -13.003653384762394 L 3.6650297461789334 -2.7804182473155947 L 13.888264883625732 -2.7804182473155947 Z M 3.372876177699605 -13.295730533265662 L 3.372876177699605 -2.4882646788362663 L 14.180342032129001 -2.4882646788362663 L 14.180342032129001 -13.295730533265662 Z" fill="#525252" transform="matrix(1,0,0,1,0,0)" fill-rule="evenodd"></path></g><g clip-path="url(#SvgjsClipPath412486d391247-6706-4f03-9abe-981c94c58c4a)"><path d=" M 16.053548485324214 -7.891997606050964 L 8.82421875 -15.120945241494873 L 1.5952711145560903 -7.891997606050964 L 8.82421875 -0.6626678707267519 Z M 8.82421875 -15.533995212101928 L 1.182221143949036 -7.891997606050964 L 8.82421875 -0.25 L 16.466216356050964 -7.891997606050964 Z" fill="#525252" transform="matrix(1,0,0,1,0,0)" fill-rule="evenodd"></path></g><path d=" M 5.516200016162307 -10.892579654587756 L 6.254048060884469 -10.892579654587756 L 7.708662777622445 -6.876578154028559 L 7.729744150328793 -6.876578154028559 C 7.722717026093344 -6.970273143834548 7.713347527112745 -7.074508819993711 7.7016356533869965 -7.1892851825060475 C 7.689923779661248 -7.304061545018383 7.679383093308074 -7.434648937060481 7.670013594327475 -7.581047358632338 C 7.660644095346877 -7.727445780204196 7.652445783738852 -7.893168793423539 7.645418659503403 -8.078216398290365 C 7.638391535267954 -8.263264003157195 7.634877973150229 -8.47173535547552 7.634877973150229 -8.703630455245342 L 7.634877973150229 -10.892579654587756 L 8.450024384462331 -10.892579654587756 L 8.450024384462331 -4.891415557514171 L 7.70514921550472 -4.891415557514171 L 6.257561623002194 -8.80201019454163 L 6.229453126060397 -8.80201019454163 C 6.236480250295846 -8.696603331009893 6.245849749276445 -8.582412562183844 6.257561623002194 -8.459437888063484 C 6.269273496727942 -8.336463213943123 6.279814183081116 -8.191821573430127 6.289183682061715 -8.025512966524497 C 6.298553181042314 -7.859204359618867 6.306751492650338 -7.665372849457728 6.313778616885787 -7.4440184360410795 C 6.3208057411212355 -7.222664022624431 6.32431930323896 -6.959732457481375 6.32431930323896 -6.655223740611911 L 6.32431930323896 -4.891415557514171 L 5.516200016162307 -4.891415557514171 L 5.516200016162307 -10.892579654587756 M 9.47598452283791 -10.892579654587756 L 10.463295477918518 -10.892579654587756 C 10.575729465685704 -10.892579654587756 10.699289733492352 -10.887894905097456 10.83397628133846 -10.878525406116857 C 10.96866282918457 -10.869155907136259 11.103349377030678 -10.846317753371048 11.238035924876787 -10.810010944821228 C 11.372722472722895 -10.773704136271407 11.502724271078705 -10.719243923446676 11.628041319944217 -10.646630306347035 C 11.753358368809726 -10.574016689247394 11.864621169204339 -10.47446576257853 11.961829721128051 -10.347977526340447 C 12.059038273051765 -10.221489290102362 12.136922233327994 -10.062793401118467 12.195481601956736 -9.871889859388764 C 12.254040970585478 -9.680986317659062 12.28332065489985 -9.449676811575529 12.28332065489985 -9.177961341138161 L 12.28332065489985 -9.026878170076003 C 12.28332065489985 -8.570115094771808 12.217734162035658 -8.19826310397929 12.086561176307274 -7.911322197698448 C 11.95538819057889 -7.624381291417608 11.762142274104036 -7.417666720158145 11.506823426882718 -7.29117848392006 L 12.469539447139253 -4.891415557514171 L 11.506823426882718 -4.891415557514171 L 10.709244826159239 -7.136581750740179 L 10.368429300739953 -7.136581750740179 L 10.368429300739953 -4.891415557514171 L 9.47598452283791 -4.891415557514171 L 9.47598452283791 -10.892579654587756 M 10.50545822333121 -7.793617866754675 C 10.664739706001393 -7.793617866754675 10.799426253847502 -7.811185677343298 10.909517866869539 -7.846321298520545 C 11.019609479891576 -7.88145691969779 11.108619720207265 -7.94060188201282 11.176548587816606 -8.023756185465635 C 11.244477455425951 -8.106910488918452 11.293667325074093 -8.217002101940487 11.324118196761038 -8.354031024531746 C 11.354569068447987 -8.491059947123004 11.369794504291459 -8.660296522460072 11.369794504291459 -8.861740750542948 L 11.369794504291459 -9.336071636435767 C 11.369794504291459 -9.490668369615648 11.35574025582056 -9.624183730089182 11.327631758878763 -9.736617717856369 C 11.299523261936969 -9.849051705623555 11.252090173347685 -9.94157550805697 11.185332493110918 -10.01418912515661 C 11.11857481287415 -10.086802742256252 11.030150166244749 -10.140677361394696 10.920058553222713 -10.17581298257194 C 10.809966940200676 -10.210948603749188 10.671766830236841 -10.22851641433781 10.50545822333121 -10.22851641433781 L 10.368429300739953 -10.22851641433781 L 10.368429300739953 -7.793617866754675 L 10.50545822333121 -7.793617866754675" fill="#525252" transform="matrix(1,0,0,1,0,0)" fill-rule="nonzero"></path></g><g><path d=" M 0.13916015625 0.017578125000000222 L 0.404296875 0.017578125000000222 L 1.094970703125 0.5976562500000002 L 1.095703125 0.017578125000000222 L 1.2568359375 0.017578125000000222 L 1.2568359375 1.1059570312500002 L 0.99169921875 1.1059570312500002 L 0.30029296875 0.5280761718750002 L 0.30029296875 1.1059570312500002 L 0.13916015625 1.1059570312500002 L 0.13916015625 0.017578125000000222 M 1.53515625 0.017578125000000222 L 2.455078125 0.017578125000000222 L 2.455078125 0.18530273437500022 L 1.959228515625 0.18530273437500022 L 1.95849609375 0.4790039062500002 L 2.337890625 0.4790039062500002 L 2.337890625 0.6467285156250002 L 1.95849609375 0.6467285156250002 L 1.95849609375 0.9382324218750002 L 2.455078125 0.9382324218750002 L 2.455078125 1.1059570312500002 L 1.53515625 1.1059570312500002 L 1.53515625 0.017578125000000222 M 2.908447265625 0.5830078125000002 L 2.555419921875 0.017578125000000222 L 3.03369140625 0.017578125000000222 L 3.24609375 0.3574218750000002 L 3.462890625 0.017578125000000222 L 3.654052734375 0.017578125000000222 L 3.336181640625 0.5024414062500002 L 3.714111328125 1.1059570312500002 L 3.23583984375 1.1066894531250002 L 2.9970703125 0.7258300781250002 L 2.750244140625 1.1066894531250002 L 2.558349609375 1.1066894531250002 L 2.908447265625 0.5830078125000002 M 4.05615234375 0.18457031250000022 L 3.74560546875 0.18457031250000022 L 3.74560546875 0.016845703125000222 L 4.7900390625 0.016845703125000222 L 4.7900390625 0.18457031250000022 L 4.4794921875 0.18457031250000022 L 4.4794921875 1.1059570312500002 L 4.05615234375 1.1059570312500002 L 4.05615234375 0.18457031250000022 M 4.963623046875 0.8642578125000002 Q 5.041259765625 0.9038085937500002 5.126220703125 0.9235839843750002 Q 5.211181640625 0.9433593750000002 5.284423828125 0.9433593750000002 Q 5.36865234375 0.9433593750000002 5.4078369140625 0.9191894531250002 Q 5.447021484375 0.8950195312500002 5.447021484375 0.8532714843750002 Q 5.447021484375 0.8400878906250002 5.4422607421875 0.8261718750000002 Q 5.4375 0.8122558593750002 5.4239501953125 0.7987060546875002 Q 5.410400390625 0.7851562500000002 5.3865966796875 0.7716064453125002 Q 5.36279296875 0.7580566406250002 5.32470703125 0.7448730468750002 L 5.193603515625 0.7001953125000002 Q 5.052978515625 0.6518554687500002 4.98193359375 0.5694580078125002 Q 4.910888671875 0.4870605468750002 4.910888671875 0.3735351562500002 Q 4.910888671875 0.3002929687500002 4.941650390625 0.23254394531250022 Q 4.972412109375 0.16479492187500022 5.03466796875 0.11315917968750022 Q 5.096923828125 0.06152343750000022 5.1917724609375 0.030761718750000222 Q 5.28662109375 2.220446049250313e-16 5.4140625 2.220446049250313e-16 Q 5.47705078125 2.220446049250313e-16 5.534912109375 0.007324218750000222 Q 5.5927734375 0.014648437500000222 5.6436767578125 0.026367187500000222 Q 5.694580078125 0.03808593750000022 5.737060546875 0.05310058593750022 Q 5.779541015625 0.06811523437500022 5.811767578125 0.08276367187500022 L 5.732666015625 0.22558593750000022 Q 5.709228515625 0.21093750000000022 5.6832275390625 0.19995117187500022 Q 5.6572265625 0.18896484375000022 5.6312255859375 0.18164062500000022 Q 5.605224609375 0.17431640625000022 5.580322265625 0.17065429687500022 Q 5.555419921875 0.16699218750000022 5.534912109375 0.16699218750000022 Q 5.499755859375 0.16699218750000022 5.473388671875 0.17614746093750022 Q 5.447021484375 0.18530273437500022 5.4290771484375 0.20031738281250022 Q 5.4111328125 0.21533203125000022 5.4019775390625 0.23400878906250022 Q 5.392822265625 0.2526855468750002 5.392822265625 0.2709960937500002 Q 5.392822265625 0.2871093750000002 5.4005126953125 0.3021240234375002 Q 5.408203125 0.3171386718750002 5.4268798828125 0.3314208984375002 Q 5.445556640625 0.3457031250000002 5.4759521484375 0.3599853515625002 Q 5.50634765625 0.3742675781250002 5.5517578125 0.3896484375000002 L 5.6396484375 0.4189453125000002 Q 5.782470703125 0.4665527343750002 5.85791015625 0.5500488281250002 Q 5.933349609375 0.6335449218750002 5.933349609375 0.7521972656250002 Q 5.933349609375 0.8327636718750002 5.8970947265625 0.9008789062500002 Q 5.86083984375 0.9689941406250002 5.7890625 1.0184326171875002 Q 5.71728515625 1.0678710937500002 5.6107177734375 1.0953369140625002 Q 5.504150390625 1.1228027343750002 5.363525390625 1.1228027343750002 Q 5.296142578125 1.1228027343750002 5.2335205078125 1.1158447265625002 Q 5.1708984375 1.1088867187500002 5.1112060546875 1.0949707031250002 Q 5.051513671875 1.0810546875000002 4.99365234375 1.0598144531250002 Q 4.935791015625 1.0385742187500002 4.8779296875 1.0100097656250002 L 4.963623046875 0.8642578125000002 M 6.327392578125 0.18457031250000022 L 6.016845703125 0.18457031250000022 L 6.016845703125 0.016845703125000222 L 7.061279296875 0.016845703125000222 L 7.061279296875 0.18457031250000022 L 6.750732421875 0.18457031250000022 L 6.750732421875 1.1059570312500002 L 6.327392578125 1.1059570312500002 L 6.327392578125 0.18457031250000022 M 7.22021484375 0.017578125000000222 L 8.14013671875 0.017578125000000222 L 8.14013671875 0.18530273437500022 L 7.644287109375 0.18530273437500022 L 7.6435546875 0.4790039062500002 L 8.02294921875 0.4790039062500002 L 8.02294921875 0.6467285156250002 L 7.6435546875 0.6467285156250002 L 7.6435546875 0.9382324218750002 L 8.14013671875 0.9382324218750002 L 8.14013671875 1.1059570312500002 L 7.22021484375 1.1059570312500002 L 7.22021484375 0.017578125000000222 M 8.357666015625 0.017578125000000222 L 8.88134765625 0.017578125000000222 Q 9.0263671875 0.016845703125000222 9.1314697265625 0.04284667968750022 Q 9.236572265625 0.06884765625000022 9.3046875 0.11718750000000022 Q 9.372802734375 0.16552734375000022 9.4053955078125 0.23327636718750022 Q 9.43798828125 0.3010253906250002 9.43798828125 0.3837890625000002 Q 9.43798828125 0.4562988281250002 9.4075927734375 0.5225830078125002 Q 9.377197265625 0.5888671875000002 9.3138427734375 0.6394042968750002 Q 9.25048828125 0.6899414062500002 9.1527099609375 0.7199707031250002 Q 9.054931640625 0.7500000000000002 8.920166015625 0.7500000000000002 L 8.781005859375 0.7500000000000002 L 8.781005859375 1.1059570312500002 L 8.357666015625 1.1059570312500002 L 8.357666015625 0.017578125000000222 M 8.781005859375 0.5903320312500002 Q 8.83154296875 0.5895996093750002 8.87109375 0.5745849609375002 Q 8.91064453125 0.5595703125000002 8.937744140625 0.5328369140625002 Q 8.96484375 0.5061035156250002 8.9791259765625 0.4683837890625002 Q 8.993408203125 0.4306640625000002 8.993408203125 0.3837890625000002 Q 8.993408203125 0.3376464843750002 8.978759765625 0.3002929687500002 Q 8.964111328125 0.2629394531250002 8.9366455078125 0.23620605468750022 Q 8.9091796875 0.20947265625000022 8.8699951171875 0.19409179687500022 Q 8.830810546875 0.17871093750000022 8.781005859375 0.17724609375000022 L 8.781005859375 0.5903320312500002 M 10.06787109375 0.017578125000000222 L 10.695556640625 0.017578125000000222 Q 10.817138671875 0.017578125000000222 10.9083251953125 0.04321289062500022 Q 10.99951171875 0.06884765625000022 11.0606689453125 0.11499023437500022 Q 11.121826171875 0.16113281250000022 11.152587890625 0.22558593750000022 Q 11.183349609375 0.2900390625000002 11.183349609375 0.3676757812500002 Q 11.183349609375 0.4636230468750002 11.137939453125 0.5379638671875002 Q 11.092529296875 0.6123046875000002 11.003173828125 0.6562500000000002 L 11.231689453125 1.1066894531250002 L 10.75341796875 1.1066894531250002 L 10.58056640625 0.7111816406250002 L 10.4912109375 0.7111816406250002 L 10.4912109375 1.1059570312500002 L 10.06787109375 1.1059570312500002 L 10.06787109375 0.017578125000000222 M 10.516845703125 0.5786132812500002 Q 10.56884765625 0.5786132812500002 10.60986328125 0.5639648437500002 Q 10.65087890625 0.5493164062500002 10.679443359375 0.5225830078125002 Q 10.7080078125 0.4958496093750002 10.723388671875 0.4588623046875002 Q 10.73876953125 0.4218750000000002 10.73876953125 0.3779296875000002 Q 10.73876953125 0.3339843750000002 10.723388671875 0.2969970703125002 Q 10.7080078125 0.2600097656250002 10.679443359375 0.23327636718750022 Q 10.65087890625 0.20654296875000022 10.60986328125 0.19189453125000022 Q 10.56884765625 0.17724609375000022 10.516845703125 0.17724609375000022 L 10.491943359375 0.17724609375000022 L 10.4912109375 0.5786132812500002 L 10.516845703125 0.5786132812500002 M 11.433837890625 0.017578125000000222 L 12.353759765625 0.017578125000000222 L 12.353759765625 0.18530273437500022 L 11.85791015625 0.18530273437500022 L 11.857177734375 0.4790039062500002 L 12.236572265625 0.4790039062500002 L 12.236572265625 0.6467285156250002 L 11.857177734375 0.6467285156250002 L 11.857177734375 0.9382324218750002 L 12.353759765625 0.9382324218750002 L 12.353759765625 1.1059570312500002 L 11.433837890625 1.1059570312500002 L 11.433837890625 0.017578125000000222 M 12.5859375 0.8642578125000002 Q 12.66357421875 0.9038085937500002 12.74853515625 0.9235839843750002 Q 12.83349609375 0.9433593750000002 12.90673828125 0.9433593750000002 Q 12.990966796875 0.9433593750000002 13.0301513671875 0.9191894531250002 Q 13.0693359375 0.8950195312500002 13.0693359375 0.8532714843750002 Q 13.0693359375 0.8400878906250002 13.0645751953125 0.8261718750000002 Q 13.059814453125 0.8122558593750002 13.0462646484375 0.7987060546875002 Q 13.03271484375 0.7851562500000002 13.0089111328125 0.7716064453125002 Q 12.985107421875 0.7580566406250002 12.947021484375 0.7448730468750002 L 12.81591796875 0.7001953125000002 Q 12.67529296875 0.6518554687500002 12.604248046875 0.5694580078125002 Q 12.533203125 0.4870605468750002 12.533203125 0.3735351562500002 Q 12.533203125 0.3002929687500002 12.56396484375 0.23254394531250022 Q 12.5947265625 0.16479492187500022 12.656982421875 0.11315917968750022 Q 12.71923828125 0.06152343750000022 12.8140869140625 0.030761718750000222 Q 12.908935546875 2.220446049250313e-16 13.036376953125 2.220446049250313e-16 Q 13.099365234375 2.220446049250313e-16 13.1572265625 0.007324218750000222 Q 13.215087890625 0.014648437500000222 13.2659912109375 0.026367187500000222 Q 13.31689453125 0.03808593750000022 13.359375 0.05310058593750022 Q 13.40185546875 0.06811523437500022 13.43408203125 0.08276367187500022 L 13.35498046875 0.22558593750000022 Q 13.33154296875 0.21093750000000022 13.3055419921875 0.19995117187500022 Q 13.279541015625 0.18896484375000022 13.2535400390625 0.18164062500000022 Q 13.2275390625 0.17431640625000022 13.20263671875 0.17065429687500022 Q 13.177734375 0.16699218750000022 13.1572265625 0.16699218750000022 Q 13.1220703125 0.16699218750000022 13.095703125 0.17614746093750022 Q 13.0693359375 0.18530273437500022 13.0513916015625 0.20031738281250022 Q 13.033447265625 0.21533203125000022 13.0242919921875 0.23400878906250022 Q 13.01513671875 0.2526855468750002 13.01513671875 0.2709960937500002 Q 13.01513671875 0.2871093750000002 13.0228271484375 0.3021240234375002 Q 13.030517578125 0.3171386718750002 13.0491943359375 0.3314208984375002 Q 13.06787109375 0.3457031250000002 13.0982666015625 0.3599853515625002 Q 13.128662109375 0.3742675781250002 13.174072265625 0.3896484375000002 L 13.261962890625 0.4189453125000002 Q 13.40478515625 0.4665527343750002 13.480224609375 0.5500488281250002 Q 13.5556640625 0.6335449218750002 13.5556640625 0.7521972656250002 Q 13.5556640625 0.8327636718750002 13.5194091796875 0.9008789062500002 Q 13.483154296875 0.9689941406250002 13.411376953125 1.0184326171875002 Q 13.339599609375 1.0678710937500002 13.2330322265625 1.0953369140625002 Q 13.12646484375 1.1228027343750002 12.98583984375 1.1228027343750002 Q 12.91845703125 1.1228027343750002 12.8558349609375 1.1158447265625002 Q 12.793212890625 1.1088867187500002 12.7335205078125 1.0949707031250002 Q 12.673828125 1.0810546875000002 12.615966796875 1.0598144531250002 Q 12.55810546875 1.0385742187500002 12.500244140625 1.0100097656250002 L 12.5859375 0.8642578125000002 M 13.754150390625 0.017578125000000222 L 14.177490234375 0.017578125000000222 L 14.177490234375 0.7089843750000002 Q 14.177490234375 0.7675781250000002 14.1932373046875 0.8104248046875002 Q 14.208984375 0.8532714843750002 14.2371826171875 0.8814697265625002 Q 14.265380859375 0.9096679687500002 14.303466796875 0.9235839843750002 Q 14.341552734375 0.9375000000000002 14.385498046875 0.9375000000000002 Q 14.433837890625 0.9375000000000002 14.4722900390625 0.9235839843750002 Q 14.5107421875 0.9096679687500002 14.537841796875 0.8811035156250002 Q 14.56494140625 0.8525390625000002 14.57958984375 0.8093261718750002 Q 14.59423828125 0.7661132812500002 14.59423828125 0.7075195312500002 L 14.59423828125 0.017578125000000222 L 14.75537109375 0.017578125000000222 L 14.75537109375 0.6826171875000002 Q 14.75537109375 0.7836914062500002 14.7227783203125 0.8649902343750002 Q 14.690185546875 0.9462890625000002 14.630126953125 1.0037841796875002 Q 14.570068359375 1.0612792968750002 14.485107421875 1.0920410156250002 Q 14.400146484375 1.1228027343750002 14.29541015625 1.1228027343750002 Q 14.152587890625 1.1228027343750002 14.050048828125 1.0924072265625002 Q 13.947509765625 1.0620117187500002 13.881591796875 1.0052490234375002 Q 13.815673828125 0.9484863281250002 13.784912109375 0.8679199218750002 Q 13.754150390625 0.7873535156250002 13.754150390625 0.6862792968750002 L 13.754150390625 0.017578125000000222 M 14.97802734375 0.017578125000000222 L 15.277587890625 0.017578125000000222 L 15.689208984375 0.5874023437500002 L 16.080322265625 0.017578125000000222 L 16.371826171875 0.017578125000000222 L 16.371826171875 1.1059570312500002 L 15.94921875 1.1059570312500002 L 15.94921875 0.5500488281250002 L 15.54345703125 1.1198730468750002 L 15.13916015625 0.5500488281250002 L 15.13916015625 1.1059570312500002 L 14.97802734375 1.1059570312500002 L 14.97802734375 0.017578125000000222 M 16.650146484375 0.017578125000000222 L 17.570068359375 0.017578125000000222 L 17.570068359375 0.18530273437500022 L 17.07421875 0.18530273437500022 L 17.073486328125 0.4790039062500002 L 17.452880859375 0.4790039062500002 L 17.452880859375 0.6467285156250002 L 17.073486328125 0.6467285156250002 L 17.073486328125 0.9382324218750002 L 17.570068359375 0.9382324218750002 L 17.570068359375 1.1059570312500002 L 16.650146484375 1.1059570312500002 L 16.650146484375 0.017578125000000222" fill="#525252" fill-rule="nonzero"></path></g><g></g></g><defs><clipPath id="SvgjsClipPath41250"><path d=" M 1.182221143949036 -15.533995212101928 h 15.283995212101928 v 15.283995212101928 h -15.283995212101928 Z"></path></clipPath><clipPath id="SvgjsClipPath412486d391247-6706-4f03-9abe-981c94c58c4a"><path d=" M 1.182221143949036 -15.533995212101928 L 16.466216356050964 -15.533995212101928 L 16.466216356050964 -0.25 L 1.182221143949036 -0.25 Z"></path></clipPath></defs></svg>