<?xml version="1.0" ?>
<!DOCTYPE svg  PUBLIC '-//W3C//DTD SVG 1.1//EN'  'http://www.w3.org/Graphics/SVG/1.1/DTD/svg11.dtd'>
<!-- Uploaded to: SVG Repo, www.svgrepo.com, Generator: SVG Repo Mixer Tools -->
<svg fill="#000000" width="800px" height="800px" viewBox="0 0 512 512" version="1.1" xml:space="preserve" xmlns="http://www.w3.org/2000/svg" xmlns:xlink="http://www.w3.org/1999/xlink">
<g id="A_-_76_x2C__time_x2C__watch_x2C__minutes_x2C__timmer">
<g>
<path d="M263.667,251.428c-0.019-0.03-0.027-0.063-0.044-0.094c-1.56-2.547-4.371-4.221-7.658-4.221    c-4.901,0-8.889,3.987-8.889,8.889s3.987,8.889,8.889,8.889c4.943,0,8.965-3.987,8.965-8.889c0-1.613-0.417-3.109-1.145-4.4    C263.746,251.544,263.703,251.489,263.667,251.428z"/>
<path d="M388.178,256.002c0-1.812,1.469-3.28,3.28-3.28h30.925c-0.111-5.708-0.51-11.345-1.186-16.9l-13.748,1.972    c-0.158,0.023-0.314,0.034-0.47,0.034c-1.606,0-3.008-1.18-3.243-2.814c-0.258-1.793,0.988-3.456,2.781-3.713l13.76-1.973    c-0.785-4.853-1.775-9.638-2.972-14.343l-13.433,3.693c-0.291,0.08-0.584,0.118-0.871,0.118c-1.441,0-2.762-0.956-3.161-2.412    c-0.479-1.746,0.546-3.552,2.293-4.032l13.423-3.689c-1.4-4.712-2.996-9.343-4.793-13.872l-12.8,5.416    c-0.417,0.176-0.851,0.26-1.276,0.26c-1.277,0-2.492-0.752-3.022-2.003c-0.706-1.668,0.075-3.593,1.743-4.298l12.809-5.418    c-1.982-4.472-4.156-8.838-6.512-13.093l-26.779,15.479c-0.517,0.299-1.082,0.441-1.639,0.441c-1.133,0-2.234-0.587-2.842-1.639    c-0.906-1.568-0.37-3.574,1.198-4.481l26.779-15.478c-2.932-4.838-6.106-9.514-9.501-14.014l-10.887,8.545    c-0.601,0.472-1.314,0.7-2.023,0.7c-0.973,0-1.936-0.43-2.582-1.255c-1.118-1.425-0.87-3.486,0.555-4.605l10.885-8.543    c-3.094-3.782-6.352-7.424-9.76-10.92l-9.711,9.839c-0.641,0.651-1.488,0.977-2.334,0.977c-0.832,0-1.665-0.314-2.304-0.945    c-1.29-1.273-1.304-3.349-0.031-4.639l9.716-9.843c-3.533-3.352-7.215-6.548-11.031-9.583l-8.408,11.005    c-0.646,0.844-1.622,1.288-2.608,1.288c-0.696,0-1.396-0.219-1.989-0.674c-1.439-1.1-1.715-3.158-0.615-4.597l8.408-11.001    c-3.936-2.886-7.994-5.61-12.181-8.148l-15.429,26.759c-0.607,1.052-1.711,1.642-2.845,1.642c-0.556,0-1.12-0.142-1.636-0.439    c-1.568-0.905-2.107-2.91-1.203-4.479l15.434-26.766c-4.93-2.73-10.006-5.221-15.225-7.448l-5.167,12.892    c-0.515,1.281-1.744,2.061-3.046,2.061c-0.406,0-0.819-0.076-1.219-0.237c-1.682-0.673-2.498-2.583-1.824-4.265l5.171-12.899    c-4.532-1.726-9.155-3.267-13.866-4.599l-3.576,13.475c-0.39,1.47-1.717,2.44-3.167,2.44c-0.279,0-0.562-0.036-0.844-0.111    c-1.751-0.464-2.794-2.26-2.329-4.011l3.567-13.443c-4.724-1.134-9.524-2.068-14.394-2.788l-1.783,13.824    c-0.215,1.653-1.625,2.859-3.249,2.859c-0.141,0-0.282-0.009-0.425-0.027c-1.797-0.231-3.064-1.876-2.833-3.672l1.784-13.815    c-4.834-0.521-9.728-0.833-14.673-0.929V103.5v17.084c0,1.811-1.469,3.28-3.28,3.28c-1.812,0-3.28-1.469-3.28-3.28V103.5V89.585    c-5.709,0.111-11.346,0.511-16.901,1.185l1.975,13.748c0.257,1.793-0.988,3.455-2.78,3.713c-0.158,0.022-0.316,0.034-0.471,0.034    c-1.605,0-3.008-1.18-3.242-2.814l-1.977-13.758c-4.858,0.787-9.649,1.779-14.358,2.978l3.709,13.417    c0.482,1.746-0.542,3.553-2.288,4.035c-0.292,0.081-0.586,0.12-0.875,0.12c-1.438,0-2.757-0.954-3.159-2.407l-3.708-13.412    c-4.688,1.395-9.294,2.982-13.801,4.771l5.366,12.904c0.696,1.672-0.096,3.592-1.769,4.288c-0.412,0.171-0.838,0.252-1.258,0.252    c-1.285,0-2.506-0.761-3.03-2.021l-5.354-12.876c-4.478,1.987-8.852,4.164-13.113,6.523l15.448,26.78    c0.905,1.569,0.367,3.575-1.202,4.48c-0.517,0.297-1.08,0.439-1.636,0.439c-1.135,0-2.237-0.588-2.844-1.642l-15.445-26.773    c-4.84,2.935-9.517,6.112-14.018,9.51l8.516,10.87c1.117,1.426,0.867,3.487-0.559,4.605c-0.601,0.469-1.313,0.697-2.021,0.697    c-0.974,0-1.938-0.431-2.584-1.256l-8.509-10.861c-3.782,3.094-7.421,6.354-10.915,9.763l9.873,9.682    c1.293,1.268,1.314,3.345,0.046,4.638c-0.643,0.655-1.493,0.984-2.342,0.984c-0.829,0-1.658-0.312-2.297-0.938l-9.89-9.699    c-3.351,3.535-6.547,7.219-9.581,11.037l11.034,8.373c1.443,1.095,1.725,3.152,0.63,4.596c-0.645,0.85-1.624,1.297-2.615,1.297    c-0.691,0-1.387-0.217-1.98-0.667l-11.046-8.382c-2.883,3.934-5.604,7.994-8.14,12.179l26.79,15.48    c1.569,0.906,2.106,2.913,1.199,4.48c-0.607,1.052-1.709,1.64-2.842,1.64c-0.557,0-1.121-0.142-1.638-0.441l-26.789-15.48    c-2.727,4.929-5.216,10.006-7.441,15.222l12.915,5.219c1.679,0.679,2.491,2.59,1.812,4.27c-0.517,1.276-1.745,2.052-3.042,2.052    c-0.409,0-0.826-0.077-1.229-0.24l-12.903-5.215c-1.729,4.547-3.272,9.186-4.604,13.911l13.48,3.496    c1.753,0.455,2.806,2.245,2.352,3.999c-0.383,1.478-1.715,2.458-3.173,2.458c-0.273,0-0.55-0.035-0.826-0.106l-13.482-3.496    c-1.129,4.72-2.06,9.517-2.777,14.382l13.819,1.718c1.797,0.223,3.074,1.861,2.85,3.659c-0.206,1.661-1.62,2.876-3.25,2.876    c-0.134,0-0.271-0.008-0.408-0.025l-13.838-1.721c-0.517,4.813-0.826,9.686-0.922,14.611h30.925c1.812,0,3.28,1.468,3.28,3.28    c0,1.811-1.468,3.279-3.28,3.279H89.624c0.111,5.707,0.51,11.345,1.185,16.897l13.75-1.974c1.792-0.258,3.455,0.987,3.712,2.78    c0.257,1.792-0.987,3.454-2.78,3.712l-13.761,1.977c0.785,4.853,1.775,9.637,2.972,14.34l13.434-3.692    c1.749-0.478,3.552,0.546,4.032,2.293c0.48,1.746-0.547,3.552-2.293,4.032l-13.421,3.689c1.401,4.712,2.997,9.342,4.794,13.871    l12.796-5.41c1.668-0.706,3.593,0.074,4.298,1.743s-0.075,3.593-1.744,4.298l-12.802,5.413c1.974,4.451,4.138,8.8,6.482,13.035    l26.809-15.42c1.57-0.904,3.575-0.362,4.479,1.208s0.362,3.574-1.208,4.478l-26.798,15.414c2.942,4.854,6.128,9.546,9.535,14.06    l10.872-8.53c1.425-1.118,3.488-0.869,4.605,0.556c1.118,1.425,0.869,3.486-0.556,4.604l-10.867,8.528    c3.085,3.771,6.333,7.399,9.731,10.885l9.737-9.796c1.277-1.285,3.354-1.291,4.638-0.015c1.285,1.277,1.291,3.354,0.015,4.638    l-9.724,9.785c3.542,3.359,7.234,6.563,11.06,9.604l8.396-10.979c1.101-1.438,3.161-1.714,4.598-0.613    c1.439,1.101,1.714,3.159,0.613,4.598l-8.392,10.973c3.935,2.885,7.995,5.606,12.181,8.142l15.416-26.723    c0.905-1.568,2.909-2.107,4.479-1.202c1.569,0.905,2.107,2.911,1.202,4.48l-15.418,26.727c4.928,2.727,10.005,5.215,15.221,7.44    l5.149-12.846c0.673-1.681,2.584-2.498,4.264-1.823c1.682,0.674,2.499,2.583,1.824,4.266l-5.15,12.848    c4.533,1.725,9.156,3.263,13.867,4.592l3.561-13.417c0.465-1.751,2.263-2.794,4.012-2.329c1.75,0.465,2.793,2.261,2.328,4.011    l-3.552,13.383c4.722,1.132,9.521,2.063,14.388,2.779l1.775-13.759c0.232-1.796,1.878-3.064,3.672-2.833    c1.797,0.232,3.065,1.877,2.833,3.674l-1.774,13.748c4.804,0.515,9.669,0.823,14.586,0.918v-30.92c0-1.813,1.468-3.28,3.28-3.28    c1.811,0,3.28,1.468,3.28,3.28v30.92c5.729-0.11,11.387-0.512,16.962-1.19l-1.959-13.745c-0.256-1.794,0.99-3.455,2.783-3.71    c1.792-0.266,3.454,0.99,3.711,2.784l1.959,13.748c4.836-0.784,9.604-1.771,14.291-2.964l-3.631-13.442    c-0.473-1.748,0.562-3.55,2.312-4.021c1.751-0.477,3.549,0.563,4.021,2.311l3.621,13.404c4.703-1.396,9.325-2.987,13.846-4.78    l-5.336-12.83c-0.695-1.673,0.098-3.592,1.771-4.287c1.671-0.696,3.592,0.096,4.288,1.769l5.322,12.803    c4.477-1.983,8.848-4.157,13.107-6.513l-15.404-26.714c-0.904-1.569-0.365-3.575,1.203-4.479c1.57-0.904,3.576-0.365,4.48,1.202    l15.399,26.709c4.843-2.934,9.521-6.109,14.025-9.506l-8.491-10.896c-1.113-1.428-0.857-3.488,0.57-4.604    c1.43-1.112,3.49-0.856,4.604,0.571l8.477,10.875c3.778-3.087,7.416-6.342,10.908-9.745l-9.832-9.645    c-1.293-1.269-1.313-3.346-0.045-4.638c1.268-1.294,3.346-1.314,4.638-0.046l9.853,9.665c3.354-3.534,6.553-7.218,9.59-11.035    l-10.936-8.346c-1.44-1.099-1.717-3.157-0.617-4.597c1.098-1.44,3.158-1.716,4.596-0.618l10.938,8.348    c2.895-3.944,5.625-8.015,8.169-12.212l-26.788-15.412c-1.57-0.903-2.109-2.908-1.207-4.478c0.904-1.57,2.908-2.11,4.479-1.208    l26.801,15.418c2.717-4.91,5.198-9.969,7.418-15.165l-12.904-5.213c-1.68-0.678-2.49-2.59-1.813-4.27    c0.68-1.679,2.588-2.493,4.27-1.813l12.897,5.21c1.731-4.545,3.276-9.182,4.61-13.907l-13.473-3.496    c-1.753-0.455-2.806-2.245-2.351-3.999c0.454-1.753,2.242-2.808,3.998-2.35l13.475,3.496c1.133-4.725,2.064-9.525,2.784-14.396    l-13.76-1.783c-1.797-0.232-3.064-1.877-2.831-3.675c0.233-1.796,1.878-3.059,3.675-2.831l13.744,1.782    c0.517-4.808,0.826-9.676,0.922-14.595h-30.925C389.646,259.281,388.178,257.813,388.178,256.002z M319.178,222.476L270.676,251.1    c0.521,1.543,0.814,3.188,0.814,4.902c0,8.518-6.965,15.448-15.525,15.448c-8.518,0-15.449-6.931-15.449-15.448    c0-1.184,0.146-2.331,0.399-3.438l-68.122-50.878c-1.452-1.084-1.749-3.14-0.666-4.59c1.084-1.452,3.14-1.75,4.59-0.666    l67.072,50.095c2.83-3.627,7.229-5.971,12.174-5.971c4.472,0,8.498,1.902,11.333,4.923l48.543-28.65    c1.561-0.922,3.572-0.402,4.492,1.158C321.254,219.545,320.736,221.555,319.178,222.476z"/>
<path d="M255.965,43.752c-116.993,0-212.174,95.215-212.174,212.25c0,117.032,95.181,212.246,212.174,212.246    c117.031,0,212.244-95.214,212.244-212.246C468.209,138.967,372.996,43.752,255.965,43.752z M255.965,428.94    c-95.361,0-172.943-77.58-172.943-172.938c0-95.403,77.582-173.019,172.943-173.019c95.402,0,173.019,77.616,173.019,173.019    C428.984,351.36,351.367,428.94,255.965,428.94z"/>
</g>
</g>
<g id="Layer_1"/>
</svg>